# xmcd CD database file
#
# Track frame offsets:
#	225
#	43520
#	81489
#	112662
#	142049
#	150174
#	156755
#	163038
#	179875
#	209862
#
# Disc length: 3184 seconds
#
# Revision: 0
# Processed by: cddbd v1.4PL0 Copyright (c) Steve Scherf et al.
# Submitted via: CDex 1.50beta10
#
DISCID=880c6d0a
DTITLE=Kirk elliot - Moonlight On Water
DYEAR=1996
DGENRE=New Age
TTITLE0=Moonlight On Water
TTITLE1=Philippa's Island
TTITLE2=Duet For Four Guitars
TTITLE3=Summer Twilight
TTITLE4=Four Short Regrets for: Zheng and Irish Flute
TTITLE5=Four Short Regrets for: Zheng Solo
TTITLE6=Four Short Regrets for:Zheng and Flute
TTITLE7=Four Short Regrets for:Zheng and Flute
TTITLE8=Requim For Lash Larue
TTITLE9=Night Sky Diamonds
EXTD=YEAR: 1996
EXTT0=
EXTT1=
EXTT2=
EXTT3=
EXTT4=
EXTT5=
EXTT6=
EXTT7=
EXTT8=
EXTT9=
PLAYORDER=
